<mxfile host="Electron" agent="Mozilla/5.0 (Windows NT 10.0; Win64; x64) AppleWebKit/537.36 (KHTML, like Gecko) draw.io/28.1.2 Chrome/138.0.7204.243 Electron/37.4.0 Safari/537.36" version="28.1.2">
  <diagram name="PÃ¡gina-1" id="IFRstpg_W7ae7e6eBxlN">
    <mxGraphModel dx="1066" dy="843" grid="1" gridSize="10" guides="1" tooltips="1" connect="1" arrows="1" fold="1" page="1" pageScale="1" pageWidth="583" pageHeight="413" math="0" shadow="0">
      <root>
        <mxCell id="0" />
        <mxCell id="1" parent="0" />
        <mxCell id="YkLOfl-12i-RPFVC1met-7" value="Acciones" style="swimlane;fontStyle=1;align=center;verticalAlign=top;childLayout=stackLayout;horizontal=1;startSize=26;horizontalStack=0;resizeParent=1;resizeParentMax=0;resizeLast=0;collapsible=1;marginBottom=0;whiteSpace=wrap;html=1;" parent="1" vertex="1">
          <mxGeometry x="750" y="430" width="198" height="88" as="geometry" />
        </mxCell>
        <mxCell id="YkLOfl-12i-RPFVC1met-8" value="- nombre: string&lt;div&gt;- cantidadAcciones: integer&lt;/div&gt;&lt;div&gt;- valorUnitario: real&lt;/div&gt;" style="text;strokeColor=none;fillColor=none;align=left;verticalAlign=top;spacingLeft=4;spacingRight=4;overflow=hidden;rotatable=0;points=[[0,0.5],[1,0.5]];portConstraint=eastwest;whiteSpace=wrap;html=1;" parent="YkLOfl-12i-RPFVC1met-7" vertex="1">
          <mxGeometry y="26" width="198" height="54" as="geometry" />
        </mxCell>
        <mxCell id="YkLOfl-12i-RPFVC1met-9" value="" style="line;strokeWidth=1;fillColor=none;align=left;verticalAlign=middle;spacingTop=-1;spacingLeft=3;spacingRight=3;rotatable=0;labelPosition=right;points=[];portConstraint=eastwest;strokeColor=inherit;" parent="YkLOfl-12i-RPFVC1met-7" vertex="1">
          <mxGeometry y="80" width="198" height="8" as="geometry" />
        </mxCell>
        <mxCell id="YkLOfl-12i-RPFVC1met-11" value="Plazo fijo" style="swimlane;fontStyle=1;align=center;verticalAlign=top;childLayout=stackLayout;horizontal=1;startSize=26;horizontalStack=0;resizeParent=1;resizeParentMax=0;resizeLast=0;collapsible=1;marginBottom=0;whiteSpace=wrap;html=1;" parent="1" vertex="1">
          <mxGeometry x="1070" y="424.98" width="220" height="88" as="geometry" />
        </mxCell>
        <mxCell id="YkLOfl-12i-RPFVC1met-12" value="- fecha: string&lt;div&gt;- montoDepositado: real&lt;br&gt;- porcentajeInteres: integer&lt;/div&gt;" style="text;strokeColor=none;fillColor=none;align=left;verticalAlign=top;spacingLeft=4;spacingRight=4;overflow=hidden;rotatable=0;points=[[0,0.5],[1,0.5]];portConstraint=eastwest;whiteSpace=wrap;html=1;" parent="YkLOfl-12i-RPFVC1met-11" vertex="1">
          <mxGeometry y="26" width="220" height="54" as="geometry" />
        </mxCell>
        <mxCell id="YkLOfl-12i-RPFVC1met-13" value="" style="line;strokeWidth=1;fillColor=none;align=left;verticalAlign=middle;spacingTop=-1;spacingLeft=3;spacingRight=3;rotatable=0;labelPosition=right;points=[];portConstraint=eastwest;strokeColor=inherit;" parent="YkLOfl-12i-RPFVC1met-11" vertex="1">
          <mxGeometry y="80" width="220" height="8" as="geometry" />
        </mxCell>
        <mxCell id="YkLOfl-12i-RPFVC1met-15" value="Portafolio" style="swimlane;fontStyle=1;align=center;verticalAlign=top;childLayout=stackLayout;horizontal=1;startSize=26;horizontalStack=0;resizeParent=1;resizeParentMax=0;resizeLast=0;collapsible=1;marginBottom=0;whiteSpace=wrap;html=1;" parent="1" vertex="1">
          <mxGeometry x="1210" y="174" width="200" height="146" as="geometry" />
        </mxCell>
        <mxCell id="YkLOfl-12i-RPFVC1met-16" value="- inverisonesActuales: inversiones&lt;br&gt;- inverisonActuall: real" style="text;strokeColor=none;fillColor=none;align=left;verticalAlign=top;spacingLeft=4;spacingRight=4;overflow=hidden;rotatable=0;points=[[0,0.5],[1,0.5]];portConstraint=eastwest;whiteSpace=wrap;html=1;" parent="YkLOfl-12i-RPFVC1met-15" vertex="1">
          <mxGeometry y="26" width="200" height="44" as="geometry" />
        </mxCell>
        <mxCell id="YkLOfl-12i-RPFVC1met-17" value="" style="line;strokeWidth=1;fillColor=none;align=left;verticalAlign=middle;spacingTop=-1;spacingLeft=3;spacingRight=3;rotatable=0;labelPosition=right;points=[];portConstraint=eastwest;strokeColor=inherit;" parent="YkLOfl-12i-RPFVC1met-15" vertex="1">
          <mxGeometry y="70" width="200" height="8" as="geometry" />
        </mxCell>
        <mxCell id="YkLOfl-12i-RPFVC1met-18" value="+CalculoMontosTotales(): real&lt;div&gt;+ Sacar(inversion): boolean&lt;br&gt;+Agreagar(inversion): boolean&lt;/div&gt;" style="text;strokeColor=none;fillColor=none;align=left;verticalAlign=top;spacingLeft=4;spacingRight=4;overflow=hidden;rotatable=0;points=[[0,0.5],[1,0.5]];portConstraint=eastwest;whiteSpace=wrap;html=1;" parent="YkLOfl-12i-RPFVC1met-15" vertex="1">
          <mxGeometry y="78" width="200" height="68" as="geometry" />
        </mxCell>
        <mxCell id="YkLOfl-12i-RPFVC1met-45" style="edgeStyle=orthogonalEdgeStyle;rounded=0;orthogonalLoop=1;jettySize=auto;html=1;exitX=0.75;exitY=0;exitDx=0;exitDy=0;entryX=0.522;entryY=1;entryDx=0;entryDy=0;entryPerimeter=0;" parent="1" source="YkLOfl-12i-RPFVC1met-7" edge="1">
          <mxGeometry relative="1" as="geometry">
            <mxPoint x="1000.06" y="290" as="targetPoint" />
          </mxGeometry>
        </mxCell>
        <mxCell id="YkLOfl-12i-RPFVC1met-47" value="Implements" style="edgeLabel;html=1;align=center;verticalAlign=middle;resizable=0;points=[];" parent="YkLOfl-12i-RPFVC1met-45" vertex="1" connectable="0">
          <mxGeometry x="-0.2121" y="1" relative="1" as="geometry">
            <mxPoint as="offset" />
          </mxGeometry>
        </mxCell>
        <mxCell id="YkLOfl-12i-RPFVC1met-46" style="edgeStyle=orthogonalEdgeStyle;rounded=0;orthogonalLoop=1;jettySize=auto;html=1;exitX=0.25;exitY=0;exitDx=0;exitDy=0;" parent="1" source="YkLOfl-12i-RPFVC1met-11" edge="1">
          <mxGeometry relative="1" as="geometry">
            <mxPoint x="1000" y="290" as="targetPoint" />
            <Array as="points">
              <mxPoint x="1035" y="360" />
              <mxPoint x="970" y="360" />
            </Array>
          </mxGeometry>
        </mxCell>
        <mxCell id="YkLOfl-12i-RPFVC1met-48" value="Extends" style="edgeLabel;html=1;align=center;verticalAlign=middle;resizable=0;points=[];" parent="1" vertex="1" connectable="0">
          <mxGeometry x="1100" y="360" as="geometry" />
        </mxCell>
        <mxCell id="YkLOfl-12i-RPFVC1met-54" value="&lt;b&gt;&lt;font style=&quot;font-size: 18px;&quot;&gt;*&lt;/font&gt;&lt;/b&gt;" style="text;html=1;align=center;verticalAlign=middle;resizable=0;points=[];autosize=1;strokeColor=none;fillColor=none;" parent="1" vertex="1">
          <mxGeometry x="1090" y="227" width="30" height="40" as="geometry" />
        </mxCell>
        <mxCell id="UmgBftTaLm9KDHd707Hn-1" style="edgeStyle=orthogonalEdgeStyle;rounded=0;orthogonalLoop=1;jettySize=auto;html=1;exitX=0;exitY=0.5;exitDx=0;exitDy=0;entryX=1;entryY=0.75;entryDx=0;entryDy=0;" parent="1" source="YkLOfl-12i-RPFVC1met-18" target="4GvNhY35CsbJzZu4-dTr-1" edge="1">
          <mxGeometry relative="1" as="geometry">
            <mxPoint x="1110" y="259.97" as="targetPoint" />
            <Array as="points">
              <mxPoint x="1161" y="286" />
              <mxPoint x="1161" y="261" />
              <mxPoint x="1100" y="261" />
            </Array>
          </mxGeometry>
        </mxCell>
        <mxCell id="4GvNhY35CsbJzZu4-dTr-1" value="&lt;p style=&quot;margin:0px;margin-top:4px;text-align:center;&quot;&gt;&lt;i&gt;&amp;lt;&amp;lt;Interface&amp;gt;&amp;gt;&lt;/i&gt;&lt;br&gt;&lt;b&gt;Inversion&lt;/b&gt;&lt;/p&gt;&lt;hr size=&quot;1&quot; style=&quot;border-style:solid;&quot;&gt;&lt;p style=&quot;margin:0px;margin-left:4px;&quot;&gt;&lt;br&gt;&lt;/p&gt;&lt;hr size=&quot;1&quot; style=&quot;border-style:solid;&quot;&gt;&lt;p style=&quot;margin:0px;margin-left:4px;&quot;&gt;+ CalcularValorActual (): real&lt;/p&gt;" style="verticalAlign=top;align=left;overflow=fill;html=1;whiteSpace=wrap;" vertex="1" parent="1">
          <mxGeometry x="900" y="150" width="190" height="140" as="geometry" />
        </mxCell>
        <mxCell id="4GvNhY35CsbJzZu4-dTr-2" value="1" style="text;align=center;fontStyle=1;verticalAlign=middle;spacingLeft=3;spacingRight=3;strokeColor=none;rotatable=0;points=[[0,0.5],[1,0.5]];portConstraint=eastwest;html=1;" vertex="1" parent="1">
          <mxGeometry x="1160" y="264" width="80" height="26" as="geometry" />
        </mxCell>
        <mxCell id="4GvNhY35CsbJzZu4-dTr-3" value="Implements" style="edgeLabel;html=1;align=center;verticalAlign=middle;resizable=0;points=[];" vertex="1" connectable="0" parent="1">
          <mxGeometry x="1100" y="360" as="geometry" />
        </mxCell>
      </root>
    </mxGraphModel>
  </diagram>
</mxfile>
